<svg width="230" height="183" viewBox="0 0 230 183" fill="none" xmlns="http://www.w3.org/2000/svg">
<path d="M208.621 9.04219L229.781 122.375C230.332 125.335 229.833 128.423 228.393 130.962C226.954 133.501 224.692 135.284 222.104 135.92L33.2432 181.985C30.6541 182.609 27.9542 182.036 25.7334 180.392C23.5126 178.748 21.9515 176.166 21.3914 173.21L0.214876 59.8775C-0.330751 56.916 0.172398 53.828 1.61423 51.2894C3.05607 48.7509 5.31915 46.9685 7.90815 46.3324L196.769 0.268035C199.361 -0.355549 202.062 0.219501 204.284 1.86734C206.505 3.51518 208.064 6.10158 208.621 9.06048V9.04219Z" fill="#019A4A"/>
<path d="M203.967 1.62048L140.869 90.1482C135.017 98.3559 126.889 104.035 117.83 106.245C108.77 108.456 99.3212 107.065 91.0468 102.304L1.81445 50.9386C3.25813 48.5685 5.43682 46.9151 7.90829 46.3139L196.769 0.249521C199.234 -0.34996 201.806 0.139902 203.967 1.62048Z" fill="#00C805"/>
</svg>
